<?xml version="1.0" encoding="utf-8"?>
<svg id="master-artboard" viewBox="0 0 434.82452392578125 340.4609069824219" version="1.1" xmlns="http://www.w3.org/2000/svg" x="0px" y="0px" style="enable-background:new 0 0 658 494;" width="434.82452392578125px" height="340.4609069824219px"><defs><radialGradient id="gradient-0" gradientUnits="objectBoundingBox" cx="0.5" cy="0.5" r="0.5">
                <stop offset="0" style="stop-color: #ffffff"/>
                <stop offset="1" style="stop-color: #cccccc"/>
              </radialGradient><style id="ee-google-fonts">@import url(https://fonts.googleapis.com/css?family=Bangers:400);</style></defs><rect id="ee-background" x="0" y="0" width="434.82452392578125" height="340.4609069824219" style="fill: rgb(255, 255, 255); fill-opacity: 0; pointer-events: none;"/>

<radialGradient id="SVGID_1_" cx="327.7023" cy="247.3887" r="300.1366" gradientTransform="matrix(0 1 1 0 81.6113 -81.6113)" gradientUnits="userSpaceOnUse">
		<stop offset="0" style="stop-color:#FFFFFF"/>
		<stop offset="0.5275" style="stop-color:#E9E9EA"/>
		<stop offset="1" style="stop-color:#71CDE5"/>
	</radialGradient>

<g transform="matrix(1, 0, 0, 1, -115.15438104630687, -84.67230151190982)">
		<path class="st2" d="M238.7,114.7c0,0,79-21.6,90.1,69.9c11.1,91.5-54.1,205.9-213.4,203.4L238.7,114.7z" style="fill: rgb(139, 197, 63);"/>
		<path class="st2" d="M232.2,126.2c0,4.9,4,8.9,8.9,8.9l0,0c4.9,0,8.9-4,8.9-8.9V96.9c0-4.9-4-8.9-8.9-8.9l0,0&#10;&#9;&#9;&#9;c-4.9,0-8.9,4-8.9,8.9V126.2z" style="fill: rgb(139, 197, 63);"/>
		<path class="st2" d="M243.6,140.3c4,2.8,9.6,1.8,12.4-2.3l0,0c2.8-4,1.8-9.6-2.3-12.4l-24-16.6c-4-2.8-9.6-1.8-12.4,2.3l0,0&#10;&#9;&#9;&#9;c-2.8,4-1.8,9.6,2.3,12.4L243.6,140.3z" style="fill: rgb(139, 197, 63);"/>
		
			<linearGradient id="SVGID_2_" gradientUnits="userSpaceOnUse" x1="217.353" y1="225.6781" x2="492.3776" y2="225.6781" gradientTransform="matrix(-1 0 0 1 760.043 0)">
			<stop offset="0" style="stop-color:#F9A51A"/>
			<stop offset="1" style="stop-color:#F05A22"/>
		</linearGradient>
		<path class="st3" d="M297.1,128.7c0,0,255.5-41.9,245.3,183c0,11.4-8.9,16.5-26.7,12.7c-17.8-3.8-127.1-47-205.9-52.1&#10;&#9;&#9;&#9;C247.5,266,264,130,297.1,128.7z" style="fill: url('#SVGID_2_'); stroke: rgb(255, 255, 255); stroke-width: 3.8133;"/>
		<g>
			<path d="M253.9,159.5c-7.9,0-14.2-6.4-14.2-14.2S246,131,253.9,131c7.9,0,14.2,6.4,14.2,14.2S261.7,159.5,253.9,159.5z"/>
			<path class="st1" d="M253.9,132.5c7,0,12.7,5.7,12.7,12.7c0,7-5.7,12.7-12.7,12.7c-7,0-12.7-5.7-12.7-12.7&#10;&#9;&#9;&#9;&#9;C241.1,138.2,246.8,132.5,253.9,132.5 M253.9,129.5c-8.7,0-15.8,7.1-15.8,15.8c0,8.7,7.1,15.8,15.8,15.8&#10;&#9;&#9;&#9;&#9;c8.7,0,15.8-7.1,15.8-15.8C269.6,136.6,262.5,129.5,253.9,129.5L253.9,129.5z" style="fill: rgb(255, 255, 255);"/>
		</g>
		<path class="st4" d="M181.4,225.3c0,0,44.5-5.1,44.5,49.6c0,57.2-76.3,82.6-101.7,76.3L181.4,225.3z" style="fill: rgb(0, 125, 196); stroke: rgb(255, 255, 255); stroke-width: 3.0506;"/>
		<g>
			<path class="st2" d="M188.4,391.3c0,4.6,3.7,8.3,8.3,8.3l0,0c4.6,0,8.3-3.7,8.3-8.3v-14c0-4.6-3.7-8.3-8.3-8.3l0,0&#10;&#9;&#9;&#9;&#9;c-4.6,0-8.3,3.7-8.3,8.3V391.3z" style="fill: rgb(139, 197, 63);"/>
			<path class="st2" d="M179.5,399c0,3.9,3.1,7,7,7h20.3c3.9,0,7-3.1,7-7l0,0c0-3.9-3.1-7-7-7h-20.3&#10;&#9;&#9;&#9;&#9;C182.6,392,179.5,395.1,179.5,399L179.5,399z" style="fill: rgb(139, 197, 63);"/>
		</g>
	</g>
<path d="M -0.11999999731779099 30.040000915527344 C 2.746666669845581 17.273334503173828 4.7133331298828125 7.376667022705078 5.78000020980835 0.35000038146972656 C 8.786666870117188 -0.5566673278808594 11.043333053588867 -1.010000228881836 12.550000190734863 -1.010000228881836 C 14.056666374206543 -1.010000228881836 15.239999771118164 -0.7966670989990234 16.100000381469727 -0.37000083923339844 C 16.959999084472656 0.049999237060546875 17.663333892822266 0.6166667938232422 18.209999084472656 1.3299999237060547 C 19.170000076293945 2.616666793823242 19.649999618530273 4.476667404174805 19.649999618530273 6.909999847412109 C 19.649999618530273 8.469999313354492 19.363332748413086 9.979999542236328 18.790000915527344 11.440000534057617 C 18.209999084472656 12.899999618530273 17.44333267211914 14.199999809265137 16.489999771118164 15.34000015258789 C 15.529999732971191 16.47333335876465 14.423333168029785 17.373332977294922 13.170000076293945 18.040000915527344 C 11.90999984741211 18.713333129882812 10.609999656677246 19.049999237060547 9.270000457763672 19.049999237060547 L 8.819999694824219 19.049999237060547 C 8.300000190734863 21.343334197998047 7.739999771118164 24.530000686645508 7.139999866485596 28.610000610351562 L -0.11999999731779099 30.040000915527344 M 11.609999656677246 4.079999923706055 C 10.896666526794434 8.046667098999023 10.25333309173584 11.559999465942383 9.680000305175781 14.619999885559082 C 10.666666984558105 14.373332977294922 11.583333015441895 13.579999923706055 12.430000305175781 12.239999771118164 C 13.356666564941406 10.766666412353516 13.819999694824219 9.100000381469727 13.819999694824219 7.239999771118164 C 13.819999694824219 6.200000762939453 13.59000015258789 5.413333892822266 13.130000114440918 4.879999160766602 C 12.66333293914795 4.34666633605957 12.15666675567627 4.079999923706055 11.609999656677246 4.079999923706055 ZM 33.593894958496094 10.799999237060547 C 33.593894958496094 8.533332824707031 32.937225341796875 7.399999618530273 31.62389373779297 7.399999618530273 C 29.95722770690918 7.399999618530273 28.453895568847656 8.219999313354492 27.113895416259766 9.860000610351562 C 26.04722785949707 11.173334121704102 25.13056182861328 12.963333129882812 24.363895416259766 15.229999542236328 C 23.76389503479004 17.09000015258789 23.46389389038086 18.84000015258789 23.46389389038086 20.479999542236328 C 23.46389389038086 21.573333740234375 23.927227020263672 22.39666748046875 24.853893280029297 22.950000762939453 C 25.127227783203125 23.136667251586914 25.440561294555664 23.229999542236328 25.793895721435547 23.229999542236328 C 27.05389404296875 23.229999542236328 28.170562744140625 22.799999237060547 29.14389419555664 21.939998626708984 C 30.11056137084961 21.079999923706055 30.92389488220215 20.020000457763672 31.583894729614258 18.760000228881836 C 32.23722839355469 17.5 32.73722839355469 16.15333366394043 33.083892822265625 14.720000267028809 C 33.42389678955078 13.286666870117188 33.593894958496094 11.979999542236328 33.593894958496094 10.799999237060547 M 39.41389465332031 8.219999313354492 C 39.41389465332031 9.886667251586914 39.17389678955078 11.733333587646484 38.69389343261719 13.760000228881836 C 38.22056198120117 15.779999732971191 37.57389450073242 17.639999389648438 36.7538948059082 19.34000015258789 C 35.933895111083984 21.03333282470703 34.98389434814453 22.549999237060547 33.903892517089844 23.889999389648438 C 32.82389450073242 25.229999542236328 31.693893432617188 26.363332748413086 30.51389503479004 27.290000915527344 C 28.080562591552734 29.203332901000977 25.743894577026367 30.15999984741211 23.503894805908203 30.15999984741211 C 21.61722755432129 30.15999984741211 20.127227783203125 29.476667404174805 19.033893585205078 28.110000610351562 C 17.827228546142578 26.610000610351562 17.223894119262695 24.42333221435547 17.223894119262695 21.549999237060547 C 17.223894119262695 18.43000030517578 17.9505615234375 15.066666603088379 19.403894424438477 11.459999084472656 C 20.850561141967773 7.85333251953125 22.750560760498047 4.84666633605957 25.103893280029297 2.440000534057617 C 27.64389419555664 -0.1333332061767578 30.310562133789062 -1.4200000762939453 33.10389709472656 -1.4200000762939453 C 35.3972282409668 -1.4200000762939453 37.07722854614258 -0.48999977111816406 38.14389419555664 1.3700008392333984 C 38.990562438964844 2.876667022705078 39.41389465332031 5.159999847412109 39.41389465332031 8.219999313354492 ZM 44.58656311035156 24.09000015258789 C 45.626564025878906 24.010000228881836 47.0732307434082 23.969999313354492 48.92656326293945 23.969999313354492 C 48.98656463623047 25.036666870117188 49.06989669799805 25.906665802001953 49.17656326293945 26.579999923706055 C 49.28322982788086 27.246665954589844 49.35989761352539 27.73666763305664 49.40656280517578 28.049999237060547 C 49.446563720703125 28.363332748413086 49.479896545410156 28.5766658782959 49.50656509399414 28.690000534057617 L 48.23656463623047 28.649999618530273 C 45.36323165893555 28.649999618530273 42.50656509399414 28.90999984741211 39.66656494140625 29.43000030517578 C 38.73323059082031 29.616666793823242 37.88323211669922 29.83333396911621 37.1165657043457 30.079999923706055 C 37.77656555175781 25.020000457763672 38.64656448364258 19.703332901000977 39.7265625 14.130000114440918 C 40.80656433105469 8.549999237060547 41.729896545410156 3.8600006103515625 42.49656295776367 0.05999946594238281 L 49.876564025878906 -0.9300003051757812 C 47.32989501953125 9.843334197998047 45.84656524658203 16.463333129882812 45.42656326293945 18.93000030517578 C 44.99989700317383 21.389999389648438 44.71989822387695 23.110000610351562 44.58656311035156 24.09000015258789 ZM 57.014163970947266 24.09000015258789 C 58.05416488647461 24.010000228881836 59.500831604003906 23.969999313354492 61.354164123535156 23.969999313354492 C 61.41416549682617 25.036666870117188 61.49749755859375 25.906665802001953 61.604164123535156 26.579999923706055 C 61.71083068847656 27.246665954589844 61.787498474121094 27.73666763305664 61.834163665771484 28.049999237060547 C 61.87416458129883 28.363332748413086 61.90749740600586 28.5766658782959 61.934165954589844 28.690000534057617 L 60.66416549682617 28.649999618530273 C 57.79083251953125 28.649999618530273 54.934165954589844 28.90999984741211 52.09416580200195 29.43000030517578 C 51.160831451416016 29.616666793823242 50.31083297729492 29.83333396911621 49.544166564941406 30.079999923706055 C 50.204166412353516 25.020000457763672 51.07416534423828 19.703332901000977 52.1541633605957 14.130000114440918 C 53.23416519165039 8.549999237060547 54.15749740600586 3.8600006103515625 54.924163818359375 0.05999946594238281 L 62.30416488647461 -0.9300003051757812 C 59.75749969482422 9.843334197998047 58.274166107177734 16.463333129882812 57.854164123535156 18.93000030517578 C 57.42749786376953 21.389999389648438 57.147499084472656 23.110000610351562 57.014163970947266 24.09000015258789 ZM 70.50303649902344 12.040000915527344 C 71.40970611572266 9.793333053588867 72.88636779785156 5.636667251586914 74.93303680419922 -0.43000030517578125 L 81.45304107666016 1 C 79.95304107666016 4.066667556762695 78.59970092773438 6.843334197998047 77.39303588867188 9.329999923706055 L 74.77304077148438 14.739999771118164 C 74.25303649902344 15.833333015441895 73.73970794677734 16.899999618530273 73.23303985595703 17.939998626708984 C 72.72637176513672 18.979999542236328 72.26970672607422 19.950000762939453 71.863037109375 20.850000381469727 C 71.44970703125 22.93000030517578 70.8063735961914 25.47333335876465 69.93303680419922 28.479999542236328 L 62.7530403137207 29.3799991607666 L 64.68303680419922 20.939998626708984 C 64.68303680419922 17.546667098999023 64.54637145996094 13.799999237060547 64.27304077148438 9.700000762939453 C 63.99970626831055 5.593334197998047 63.83637237548828 3.2266674041748047 63.78303909301758 2.6000003814697266 L 63.69303894042969 1.7000007629394531 L 70.54303741455078 -0.9300003051757812 L 70.54303741455078 6.370000839233398 L 70.50303649902344 10.479999542236328 L 70.50303649902344 12.040000915527344 Z" transform="matrix(3.232903242111206, 0, 0, 3.232903242111206, 117.72905731201172, 218.30184936523438)" style="fill: rgb(0, 124, 196);"/></svg>